# xmcd
#
# Track frame offsets:
#	150
#	10984
#	21567
#	37558
#	51770
#	68404
#	86546
#	94464
#	107593
#	117463
#	134314
#	143758
#	159450
#	168903
#	179664
#	191230
#	202478
#	211901
#
# Disc length: 3071 seconds
#
# Revision: 1
# Processed by: cddbd v1.5.2PL0 Copyright (c) Steve Scherf et al.
# Submitted via: audiograbber 1.83.01
#
DISCID=020bfd12
DTITLE=Various Artist - Best Of Country Songs Disc 6
DYEAR=2011
DGENRE=Country
TTITLE0=Billy Walker - The Highway Man
TTITLE1=Jimmy Dean - Gotta Travel On
TTITLE2=Bill Anderson - Mama Sang A Song
TTITLE3=Sonny Till - Crying In The Chapel
TTITLE4=Gordon Lightfoot - Diddley Dee, Diddley Dee
TTITLE5=Its A Beautyful Day - White Bird
TTITLE6=Roger Miller - Dang Me
TTITLE7=Olivia Newton John - If Not For You
TTITLE8=Ersel Hickey - Blue Birds Over The Mountains
TTITLE9=Kimmie Rhodes and Waylon Jennings - Maybe We'll Just Disappear
TTITLE10=Ronnie Hawkins - Hey Good Lookin
TTITLE11=Anne Murray - Both Side Now
TTITLE12=Elvis Presley - Don't Be Cruel
TTITLE13=Onie Wheeler - Jump Right Out Of This Jukebox
TTITLE14=Charlie Feathers - Defrost Your Heart
TTITLE15=Johnny Cash - Don't Make Me Go
TTITLE16=Frankie Laine - Raw Hide
TTITLE17=Bobby Bare - Tequila Sheila
EXTD=
EXTT0=
EXTT1=
EXTT2=
EXTT3=
EXTT4=
EXTT5=
EXTT6=
EXTT7=
EXTT8=
EXTT9=
EXTT10=
EXTT11=
EXTT12=
EXTT13=
EXTT14=
EXTT15=
EXTT16=
EXTT17=
PLAYORDER=
